Transformers 3 Dark of the Moon 2011 RUS CAMRip XviD Relizlab

+++++++++++++++++++++++++++++++++++++++++++++++++++++++++++++

The Autobots learn of a Cybertronian spacecraft hidden on the Moon, and race against the Decepticons to reach it and to learn its secrets 

Director:
Michael Bay
Writer:
Ehren Kruger
Stars:
Shia LaBeouf, Rosie Huntington-Whiteley and Tyrese Gibson 




Format : AVI
Format/Info : Audio Video Interleave
File size : 1.37 GiB
Duration : 2h 25mn
Overall bit rate : 1 346 Kbps
Writing application : VirtualDubMod 1.5.4.1 (build 2178/release)
Writing library : VirtualDubMod build 2178/release

Video
ID : 0
Format : MPEG-4 Visual
Format profile : Advanced Simple@L5
Format settings, BVOP : 2
Format settings, QPel : No
Format settings, GMC : No warppoints
Format settings, Matrix : Custom
Codec ID : XVID
Codec ID/Hint : XviD
Duration : 2h 25mn
Bit rate : 1 208 Kbps
Width : 720 pixels
Height : 352 pixels
Display aspect ratio : 2.045
Frame rate : 25.000 fps
Color space : YUV
Chroma subsampling : 4:2:0
Bit depth : 8 bits
Scan type : Progressive
Compression mode : Lossy
Bits/(Pixel*Frame) : 0.191
Stream size : 1.23 GiB (90%)
Writing library : XviD 58

Audio
ID : 1
Format : MPEG Audio
Format version : Version 1
Format profile : Layer 3
Codec ID : 55
Codec ID/Hint : MP3
Duration : 2h 25mn
Bit rate mode : Constant
Bit rate : 128 Kbps
Channel(s) : 2 channels
Sampling rate : 48.0 KHz
Compression mode : Lossy
Stream size : 133 MiB (10%)
Alignment : Aligned on interleaves
Interleave, duration : 40 ms (1.00 video frame)
Interleave, preload duration : 504 ms
Writing library : LAME3.98r
Encoding settings : -m s -V 4 -q 7 -lowpass 17 -b 128

+++++++++++++++++++++++++++++++++++++++++++++++++++++

Poster:
 
http://leetleech.org/images/23014224490610809416.jpg

Screens:
 
http://leetleech.org/images/56545583464207665717.png
 
http://leetleech.org/images/70598676305503984140.png
 
http://leetleech.org/images/20202818970545370502.png
